<svg width="1800" height="1480" viewBox="0 0 1800 1480" fill="none" xmlns="http://www.w3.org/2000/svg">
  <rect width="1800" height="1480" fill="#05080A"/>
  <rect x="64" y="64" width="1672" height="1352" rx="34" fill="#080C0E" stroke="#1A2021"/>
  <text x="104" y="132" fill="#F4F1E7" font-size="44" font-weight="680" letter-spacing="0" font-family="-apple-system, BlinkMacSystemFont, 'SF Pro Display', Arial, sans-serif">HotimerLabs logo restart</text>
  <text x="104" y="172" fill="#8B8E88" font-size="18" font-weight="520" letter-spacing="0.08em" font-family="-apple-system, BlinkMacSystemFont, 'SF Pro Text', Arial, sans-serif">FRESH FLAT MULTI-TONE WEB3 AGENCY DIRECTIONS</text>

  <defs>
    <style>
      .card { fill: #0B1012; stroke: #202727; }
      .name { fill: #F4F1E7; font: 650 28px -apple-system, BlinkMacSystemFont, "SF Pro Display", Arial, sans-serif; letter-spacing: 0; }
      .sub { fill: #8B8E88; font: 520 12px -apple-system, BlinkMacSystemFont, "SF Pro Text", Arial, sans-serif; letter-spacing: .18em; }
      .label { fill: #DDE76A; font: 650 14px -apple-system, BlinkMacSystemFont, "SF Pro Text", Arial, sans-serif; letter-spacing: .14em; }
      .note { fill: #9EA39C; font: 500 16px -apple-system, BlinkMacSystemFont, "SF Pro Text", Arial, sans-serif; letter-spacing: 0; }
    </style>
  </defs>

  <g transform="translate(104 232)">
    <rect class="card" width="500" height="250" rx="18"/>
    <text class="label" x="32" y="42">01 PULSE GATE</text>
    <g transform="translate(44 80)">
      <path d="M6 10C6 4.477 10.477 0 16 0H32V84H16C10.477 84 6 79.523 6 74V10Z" fill="#E0EA62"/>
      <path d="M56 0H72C77.523 0 82 4.477 82 10V74C82 79.523 77.523 84 72 84H56V0Z" fill="#F2F0E3"/>
      <path d="M28 34H60V50H28V34Z" fill="#8EA39B"/>
      <path d="M39 22H50V62H39V22Z" fill="#05080A"/>
    </g>
    <text class="name" x="158" y="120">HotimerLabs</text>
    <text class="sub" x="160" y="148">WEB3 GROWTH ADVISORY</text>
    <text class="note" x="32" y="214">Strong, simple gateway mark with a restrained tech signal.</text>
  </g>

  <g transform="translate(920 232)">
    <rect class="card" width="500" height="250" rx="18"/>
    <text class="label" x="32" y="42">02 NEXUS FOLD</text>
    <g transform="translate(42 78)">
      <path d="M14 0H36L22 38H0L14 0Z" fill="#DDE76A"/>
      <path d="M54 0H76L62 38H40L54 0Z" fill="#F0EFE4"/>
      <path d="M22 50H44L30 88H8L22 50Z" fill="#F0EFE4"/>
      <path d="M62 50H84L70 88H48L62 50Z" fill="#9CA79F"/>
      <path d="M29 39H57L51 51H23L29 39Z" fill="#DDE76A"/>
    </g>
    <text class="name" x="158" y="120">HotimerLabs</text>
    <text class="sub" x="160" y="148">WEB3 GROWTH ADVISORY</text>
    <text class="note" x="32" y="214">Sharper and more native, but still flat and brandable.</text>
  </g>

  <g transform="translate(104 542)">
    <rect class="card" width="500" height="250" rx="18"/>
    <text class="label" x="32" y="42">03 LIQUID GRID</text>
    <g transform="translate(44 84)">
      <rect x="0" y="0" width="20" height="78" rx="4" fill="#EFF0E4"/>
      <rect x="64" y="0" width="20" height="78" rx="4" fill="#DDE76A"/>
      <rect x="24" y="10" width="36" height="14" rx="3" fill="#8FA49B"/>
      <rect x="24" y="32" width="36" height="14" rx="3" fill="#DDE76A"/>
      <rect x="24" y="54" width="36" height="14" rx="3" fill="#EFF0E4"/>
      <circle cx="10" cy="39" r="4" fill="#DDE76A"/>
      <circle cx="74" cy="39" r="4" fill="#05080A"/>
    </g>
    <text class="name" x="158" y="120">HotimerLabs</text>
    <text class="sub" x="160" y="148">WEB3 GROWTH ADVISORY</text>
    <text class="note" x="32" y="214">More data-led and liquidity oriented without becoming busy.</text>
  </g>

  <g transform="translate(920 542)">
    <rect class="card" width="500" height="250" rx="18"/>
    <text class="label" x="32" y="42">04 ORBIT FRAME</text>
    <g transform="translate(40 76)">
      <path d="M20 6H68C76.837 6 84 13.163 84 22V70C84 78.837 76.837 86 68 86H20C11.163 86 4 78.837 4 70V22C4 13.163 11.163 6 20 6Z" stroke="#8FA49B" stroke-width="10"/>
      <path d="M24 18H40V74H24V18Z" fill="#DDE76A"/>
      <path d="M48 18H64V74H48V18Z" fill="#F0EFE4"/>
      <path d="M39 38H49V54H39V38Z" fill="#05080A"/>
      <path d="M12 68C34 54 58 38 80 20" stroke="#DDE76A" stroke-width="8" stroke-linecap="round"/>
    </g>
    <text class="name" x="158" y="120">HotimerLabs</text>
    <text class="sub" x="160" y="148">WEB3 GROWTH ADVISORY</text>
    <text class="note" x="32" y="214">The most forward-looking, with a clean motion cue.</text>
  </g>

  <g transform="translate(104 852)">
    <rect class="card" width="500" height="250" rx="18"/>
    <text class="label" x="32" y="42">05 BEACON PORT</text>
    <g transform="translate(38 74)">
      <circle cx="46" cy="46" r="42" fill="#8FA49B"/>
      <circle cx="46" cy="46" r="28" fill="#05080A"/>
      <rect x="24" y="18" width="14" height="56" rx="3" fill="#DDE76A"/>
      <rect x="54" y="18" width="14" height="56" rx="3" fill="#F0EFE4"/>
      <rect x="34" y="38" width="24" height="16" rx="3" fill="#8FA49B"/>
      <path d="M14 46H24" stroke="#DDE76A" stroke-width="8" stroke-linecap="round"/>
      <path d="M68 46H78" stroke="#DDE76A" stroke-width="8" stroke-linecap="round"/>
    </g>
    <text class="name" x="158" y="120">HotimerLabs</text>
    <text class="sub" x="160" y="148">WEB3 GROWTH ADVISORY</text>
    <text class="note" x="32" y="214">A portal-like mark; friendlier and easier to remember.</text>
  </g>

  <g transform="translate(920 852)">
    <rect class="card" width="500" height="250" rx="18"/>
    <text class="label" x="32" y="42">06 PROTOCOL STACK</text>
    <g transform="translate(42 82)">
      <path d="M0 8C0 3.582 3.582 0 8 0H76C80.418 0 84 3.582 84 8V22H0V8Z" fill="#F0EFE4"/>
      <rect x="0" y="30" width="84" height="22" rx="5" fill="#DDE76A"/>
      <path d="M0 60H84V74C84 78.418 80.418 82 76 82H8C3.582 82 0 78.418 0 74V60Z" fill="#8FA49B"/>
      <rect x="31" y="12" width="22" height="58" rx="3" fill="#05080A"/>
      <rect x="37" y="28" width="10" height="26" rx="2" fill="#F0EFE4"/>
    </g>
    <text class="name" x="158" y="120">HotimerLabs</text>
    <text class="sub" x="160" y="148">WEB3 GROWTH ADVISORY</text>
    <text class="note" x="32" y="214">Structured, modular, and closest to an advisory system mark.</text>
  </g>

  <text x="104" y="1212" fill="#F4F1E7" font-size="26" font-weight="650" letter-spacing="0" font-family="-apple-system, BlinkMacSystemFont, 'SF Pro Display', Arial, sans-serif">Palette</text>
  <rect x="104" y="1242" width="54" height="54" rx="10" fill="#DDE76A"/>
  <rect x="174" y="1242" width="54" height="54" rx="10" fill="#F0EFE4"/>
  <rect x="244" y="1242" width="54" height="54" rx="10" fill="#8FA49B"/>
  <rect x="314" y="1242" width="54" height="54" rx="10" fill="#05080A" stroke="#2B3333"/>
  <text x="104" y="1346" fill="#8B8E88" font-size="18" font-weight="520" letter-spacing="0" font-family="-apple-system, BlinkMacSystemFont, 'SF Pro Text', Arial, sans-serif">A restrained multi-tone system: lime for energy, ivory for trust, gray-green for structure, near-black for depth.</text>
</svg>
